<?xml version="1.0" encoding="UTF-8" standalone="no"?>
<svg
   width="20"
   height="20"
   viewBox="0 0 20 20"
   fill="none"
   version="1.1"
   id="svg3"
   sodipodi:docname="cart.svg"
   inkscape:version="1.4 (86a8ad7, 2024-10-11)"
   xmlns:inkscape="http://www.inkscape.org/namespaces/inkscape"
   xmlns:sodipodi="http://sodipodi.sourceforge.net/DTD/sodipodi-0.dtd"
   xmlns="http://www.w3.org/2000/svg"
   xmlns:svg="http://www.w3.org/2000/svg">
  <defs
     id="defs3" />
  <sodipodi:namedview
     id="namedview3"
     pagecolor="#505050"
     bordercolor="#eeeeee"
     borderopacity="1"
     inkscape:showpageshadow="0"
     inkscape:pageopacity="0"
     inkscape:pagecheckerboard="0"
     inkscape:deskcolor="#505050"
     showgrid="false"
     inkscape:zoom="44.65"
     inkscape:cx="10"
     inkscape:cy="10"
     inkscape:window-width="1920"
     inkscape:window-height="1137"
     inkscape:window-x="-8"
     inkscape:window-y="-8"
     inkscape:window-maximized="1"
     inkscape:current-layer="svg3" />
  <path
     d="M7.54548 18.1818C7.99735 18.1818 8.36366 17.8155 8.36366 17.3636C8.36366 16.9118 7.99735 16.5455 7.54548 16.5455C7.09361 16.5455 6.72729 16.9118 6.72729 17.3636C6.72729 17.8155 7.09361 18.1818 7.54548 18.1818Z"
     stroke="#9B9B9B"
     stroke-width="2"
     stroke-linecap="round"
     stroke-linejoin="round"
     id="path1" />
  <path
     d="M16.5455 18.1818C16.9973 18.1818 17.3637 17.8155 17.3637 17.3636C17.3637 16.9118 16.9973 16.5455 16.5455 16.5455C16.0936 16.5455 15.7273 16.9118 15.7273 17.3636C15.7273 17.8155 16.0936 18.1818 16.5455 18.1818Z"
     stroke="#9B9B9B"
     stroke-width="2"
     stroke-linecap="round"
     stroke-linejoin="round"
     id="path2" />
  <path
     d="M1 1H4.27273L6.46545 11.9555C6.54027 12.3321 6.7452 12.6705 7.04436 12.9113C7.34351 13.1522 7.71784 13.2801 8.10182 13.2727H16.0545C16.4385 13.2801 16.8129 13.1522 17.112 12.9113C17.4112 12.6705 17.6161 12.3321 17.6909 11.9555L19 5.09091H5.09091"
     stroke="#9B9B9B"
     stroke-width="2"
     stroke-linecap="round"
     stroke-linejoin="round"
     id="path3" />
  <path
     style="fill:#e0e0e0;fill-opacity:1;stroke:#aee6ff;stroke-width:0.0584917"
     d="M 7.7491601,14.241297 C 6.7331415,14.111321 5.869841,13.388739 5.5647559,12.412951 5.5388049,12.329949 5.0599234,9.9742441 4.5005749,7.1780515 3.9412262,4.3818589 3.4781357,2.0713886 3.4714851,2.043673 L 3.4593931,1.9932811 H 2.1955245 c -0.8432829,0 -1.30336354,-0.00831 -1.38255203,-0.024963 C 0.63299093,1.9304627 0.47099787,1.8451331 0.32829431,1.7130148 -0.08404964,1.331257 -0.09425175,0.70775816 0.3052933,0.30731498 0.46813451,0.14410772 0.65542161,0.053519 0.89656116,0.02132517 1.0137229,0.00568326 1.6558789,2.5034714e-5 2.7659574,0.00485338 4.4371171,0.01212218 4.4583881,0.0127758 4.5852873,0.06075843 4.8281342,0.15258275 5.0595194,0.35893093 5.1630847,0.57603496 5.197819,0.64884898 5.3203617,1.2131883 5.5462101,2.3404255 5.7288414,3.2519597 5.8836764,4.0204367 5.890288,4.0481523 l 0.012021,0.050392 h 6.581063 c 4.32703,0 6.621821,0.00773 6.700062,0.022568 0.267929,0.050812 0.550437,0.2544519 0.677907,0.4886566 0.07235,0.1329268 0.127461,0.337785 0.127461,0.473779 0,0.1026154 -1.312256,7.0186531 -1.378596,7.2656711 -0.108668,0.404628 -0.379108,0.851004 -0.707408,1.167616 -0.374103,0.360784 -0.72967,0.553202 -1.273459,0.689142 l -0.190369,0.04759 -4.266518,0.0039 c -2.4070398,0.0022 -4.3348443,-0.0048 -4.423292,-0.01616 z M 16.371781,12.21775 c 0.122645,-0.06063 0.269262,-0.216593 0.311258,-0.331098 0.03185,-0.08684 1.110914,-5.7039201 1.110914,-5.7828744 0,-0.030778 -0.597176,-0.034349 -5.744681,-0.034349 -3.1595744,0 -5.7446868,0.00756 -5.7446942,0.016797 -7.1e-6,0.00924 0.2579286,1.3064141 0.5731906,2.8826125 0.3495787,1.7477689 0.5907086,2.9030549 0.6180726,2.9612689 0.053325,0.113444 0.1889514,0.24169 0.3174399,0.300166 0.089808,0.04087 0.2213066,0.04201 4.2807841,0.03697 4.121651,-0.0051 4.189552,-0.0059 4.277716,-0.04949 z"
     id="path16" />
  <path
     style="fill:#e0e0e0;fill-opacity:1;stroke:#aee6ff;stroke-width:0.0584917"
     d="m 16.267208,19.148418 c -0.700347,-0.118184 -1.248475,-0.608001 -1.46558,-1.309672 -0.03258,-0.105294 -0.04167,-0.207089 -0.04198,-0.470325 -3.51e-4,-0.290621 0.0067,-0.358502 0.05209,-0.50313 0.194379,-0.619021 0.617064,-1.041706 1.236086,-1.236086 0.144627,-0.04541 0.212509,-0.05244 0.50313,-0.05209 0.363056,4.39e-4 0.464575,0.02049 0.746838,0.147535 0.458102,0.206185 0.849141,0.666507 0.988055,1.163116 0.24614,0.879936 -0.231587,1.821394 -1.096166,2.16022 -0.275411,0.107933 -0.641705,0.147813 -0.922471,0.100434 z m 0.408647,-1.655094 c 0.07296,-0.07296 0.0813,-0.130107 0.0327,-0.224085 -0.08479,-0.163965 -0.347973,-0.101823 -0.347973,0.08216 0,0.09527 0.03354,0.159409 0.09665,0.184837 0.0892,0.03594 0.152121,0.02359 0.218624,-0.04291 z"
     id="path17" />
  <path
     style="fill:#e0e0e0;fill-opacity:1;stroke:#aee6ff;stroke-width:0.0584917"
     d="M 7.263849,19.149954 C 6.6329965,19.034228 6.1139692,18.621174 5.8768465,18.046145 5.7380229,17.709495 5.7071802,17.243468 5.8008659,16.898096 c 0.1608134,-0.592837 0.6397909,-1.082 1.2428071,-1.269233 0.1463748,-0.04545 0.2126098,-0.05201 0.5151176,-0.051 0.3269591,0.0011 0.3582976,0.0051 0.5389548,0.06854 0.5749558,0.201976 0.9817122,0.610684 1.1677106,1.173312 0.064797,0.196006 0.070476,0.237465 0.072094,0.526316 0.00147,0.262664 -0.00646,0.341897 -0.04887,0.488223 -0.1822894,0.628954 -0.6690961,1.11074 -1.2931595,1.279822 -0.1573897,0.04264 -0.5814551,0.06344 -0.7316717,0.03588 z m 0.4086465,-1.65663 c 0.08353,-0.08353 0.08755,-0.183243 0.010493,-0.260299 -0.1184858,-0.118486 -0.3257661,-0.03571 -0.3257661,0.130097 0,0.17724 0.1898364,0.255638 0.3152731,0.130202 z"
     id="path18" />
</svg>
