<?xml version="1.0" encoding="UTF-8" standalone="no"?>
<!-- Uploaded to: SVG Repo, www.svgrepo.com, Generator: SVG Repo Mixer Tools -->

<svg
   width="20"
   height="20"
   viewBox="0 0 0.6 0.6"
   fill="none"
   version="1.1"
   id="svg3"
   sodipodi:docname="signin.svg"
   inkscape:version="1.4 (86a8ad7, 2024-10-11)"
   xmlns:inkscape="http://www.inkscape.org/namespaces/inkscape"
   xmlns:sodipodi="http://sodipodi.sourceforge.net/DTD/sodipodi-0.dtd"
   xmlns="http://www.w3.org/2000/svg"
   xmlns:svg="http://www.w3.org/2000/svg">
  <defs
     id="defs3" />
  <sodipodi:namedview
     id="namedview3"
     pagecolor="#505050"
     bordercolor="#eeeeee"
     borderopacity="1"
     inkscape:showpageshadow="0"
     inkscape:pageopacity="0"
     inkscape:pagecheckerboard="0"
     inkscape:deskcolor="#505050"
     showgrid="true"
     inkscape:zoom="35.72"
     inkscape:cx="10.764278"
     inkscape:cy="11.968085"
     inkscape:window-width="1920"
     inkscape:window-height="1137"
     inkscape:window-x="-8"
     inkscape:window-y="-8"
     inkscape:window-maximized="1"
     inkscape:current-layer="svg3">
    <inkscape:grid
       id="grid5"
       units="px"
       originx="8.3266727e-19"
       originy="0"
       spacingx="0.03"
       spacingy="0.03"
       empcolor="#0099e5"
       empopacity="0.30196078"
       color="#0099e5"
       opacity="0.14901961"
       empspacing="1"
       enabled="true"
       visible="true" />
  </sodipodi:namedview>
  <path
     d="m 0.50507022,0.59760366 h -0.10272 c -0.0068,0 -0.01334,-0.0027 -0.01816,-0.0075 -0.0048,-0.0048 -0.0075,-0.01136 -0.0075,-0.01818 0,-0.0068 0.0027,-0.01336 0.0075,-0.01818 0.0048,-0.0048 0.01135,-0.0075 0.01816,-0.0075 h 0.10272 c 0.01017,8.85e-4 0.02028,-0.0022 0.02825,-0.0086 0.008,-0.0064 0.01318,-0.01559 0.01455,-0.02571 v -0.427451 c -0.0014,-0.01012 -0.0066,-0.01933 -0.01455,-0.02571 -0.008,-0.0064 -0.01809,-0.0094 -0.02825,-0.0086 h -0.10272 c -0.0068,0 -0.01334,-0.0027 -0.01816,-0.0075 -0.0048,-0.0048 -0.0075,-0.01136 -0.0075,-0.01818 0,-0.0068 0.0027,-0.01336 0.0075,-0.01818 0.0048,-0.0048 0.01135,-0.0075 0.01816,-0.0075 h 0.10272 c 0.01187,-5.06e-4 0.02373,0.001299996 0.03489,0.0054 0.01116,0.0041 0.02141,0.01034 0.03015,0.01839 0.0087,0.0081 0.01582,0.01776 0.02082,0.02855 0.005,0.01079 0.0078,0.02247 0.0083,0.03436 v 0.425395 c -4.83e-4,0.01189 -0.0033,0.02356 -0.0083,0.03436 -0.005,0.01079 -0.01207,0.0205 -0.02082,0.02855 -0.0087,0.0081 -0.01899,0.0143 -0.03015,0.01839 -0.01116,0.0041 -0.02302,0.0059 -0.03489,0.0054 z"
     fill="#000000"
     id="path1"
     style="stroke-width:0.0342591" />
  <path
     d="m 0.26539022,0.46049066 c -0.0034,1.3e-5 -0.0067,-6.45e-4 -0.0098,-0.0019 -0.0031,-0.0013 -0.0059,-0.0032 -0.0083,-0.0056 -0.0048,-0.0048 -0.0075,-0.01136 -0.0075,-0.01817 0,-0.0068 0.0027,-0.01335 0.0075,-0.01817 l 0.118813,-0.118945 -0.118813,-0.118947 c -0.0045,-0.0049 -0.007,-0.01132 -0.0069,-0.01798 1.2e-4,-0.0067 0.0028,-0.01302 0.0075,-0.01773 0.0047,-0.0047 0.01105,-0.0074 0.01771,-0.0075 0.0067,-1.17e-4 0.01309,0.0024 0.01796,0.0069 l 0.136959,0.137114 c 0.0048,0.0048 0.0075,0.01135 0.0075,0.01817 0,0.0068 -0.0027,0.01334 -0.0075,0.01817 l -0.136959,0.137113 c -0.0024,0.0024 -0.0052,0.0043 -0.0083,0.0056 -0.0031,0.0013 -0.0065,0.002 -0.0098,0.0019 z"
     fill="#000000"
     id="path2"
     style="stroke-width:0.0342591" />
  <path
     d="m 0.40235022,0.32337766 h -0.376639 c -0.0068,0 -0.01334,-0.0027 -0.01816,-0.0075 -0.0048,-0.0048 -0.007499998,-0.01136 -0.007499998,-0.01818 0,-0.0068 0.002699998,-0.01336 0.007499998,-0.01818 0.0048,-0.0048 0.01135,-0.0075 0.01816,-0.0075 h 0.376639 c 0.0068,0 0.01334,0.0027 0.01816,0.0075 0.0048,0.0048 0.0075,0.01136 0.0075,0.01818 0,0.0068 -0.0027,0.01336 -0.0075,0.01818 -0.0048,0.0048 -0.01135,0.0075 -0.01816,0.0075 z"
     fill="#000000"
     id="path3"
     style="stroke-width:0.0342591" />
  <path
     style="fill:#e0e0e0;stroke:#aee6ff;stroke-width:0.00240465"
     d="m 0.39744722,0.59659666 c -0.0106,-0.0022 -0.01864,-0.01102 -0.02015,-0.02218 -0.0013,-0.0097 0.0053,-0.02093 0.01478,-0.02537 l 0.0046,-0.0022 0.05801,-1e-5 c 0.06312,-10e-6 0.06374,-5.4e-5 0.07331,-0.0053 0.0064,-0.0035 0.01318,-0.01068 0.01661,-0.01767 l 0.003,-0.0061 v -0.219738 -0.219738 l -0.003,-0.006 c -0.0033,-0.0068 -0.01128,-0.01507 -0.01753,-0.01826 -0.0089,-0.0045 -0.01143,-0.0047 -0.07292,-0.0047 l -0.05751,-2.3e-5 -0.0046,-0.0022 c -0.0095,-0.0044 -0.0161,-0.01573 -0.0148,-0.02522 0.0013,-0.0097 0.0082,-0.01834 0.01694,-0.0212600037 0.0021,-6.90000001e-4 0.02253,-0.001 0.06442,-0.0011 0.05173,-8.4e-5 0.06241,1.21e-4 0.06783,0.0013 0.0339,0.007400004 0.05868,0.0304900037 0.06922,0.0646000037 l 0.0026,0.0083 v 0.223864 0.223864 l -0.0021,0.0078 c -0.0093,0.03384 -0.03405,0.05754 -0.06918,0.06611 -0.0051,0.0012 -0.01487,0.0015 -0.0658,0.0017 -0.0329,1.24e-4 -0.06155,-1.3e-4 -0.06368,-5.66e-4 z"
     id="path4" />
  <path
     style="fill:#e0e0e0;stroke:#aee6ff;stroke-width:0.00240465"
     d="m 0.25838022,0.45895366 c -0.009,-0.0029 -0.01576,-0.01034 -0.01763,-0.01936 -0.0011,-0.0053 -2.22e-4,-0.01124 0.0024,-0.0165 7.97e-4,-0.0016 0.02325,-0.02477 0.04988,-0.0515 l 0.04844,-0.0486 h -0.15925 c -0.178798,0 -0.164896,5.59e-4 -0.173246,-0.007 -0.01115,-0.01004 -0.01115,-0.02672 0,-0.03675 0.0084,-0.0075 -0.0056,-0.007 0.173255,-0.007 h 0.159258 l -0.04799,-0.04813 c -0.03261,-0.0327 -0.04863,-0.04941 -0.04997,-0.05211 -0.01045,-0.02103 0.01283,-0.04417 0.03347,-0.03328 0.0054,0.0029 0.145112,0.14231 0.148067,0.14781 0.0028,0.0052 0.0028,0.01687 0,0.02211 -0.0028,0.0052 -0.143561,0.145875 -0.148651,0.148535 -0.0051,0.0027 -0.01285,0.0034 -0.01804,0.0017 z"
     id="path5" />
</svg>
